<svg id="visual" viewBox="0 0 900 600" width="900" height="600" xmlns="http://www.w3.org/2000/svg" xmlns:xlink="http://www.w3.org/1999/xlink" version="1.1"><rect x="0" y="0" width="900" height="600" fill="#FFFFFF"></rect><path d="M0 403L18.8 402C37.7 401 75.3 399 112.8 416.2C150.3 433.3 187.7 469.7 225.2 467.5C262.7 465.3 300.3 424.7 337.8 407.7C375.3 390.7 412.7 397.3 450.2 407.2C487.7 417 525.3 430 562.8 449C600.3 468 637.7 493 675.2 500.3C712.7 507.7 750.3 497.3 787.8 473.7C825.3 450 862.7 413 881.3 394.5L900 376L900 601L881.3 601C862.7 601 825.3 601 787.8 601C750.3 601 712.7 601 675.2 601C637.7 601 600.3 601 562.8 601C525.3 601 487.7 601 450.2 601C412.7 601 375.3 601 337.8 601C300.3 601 262.7 601 225.2 601C187.7 601 150.3 601 112.8 601C75.3 601 37.7 601 18.8 601L0 601Z" fill="#e1d4cb" stroke-linecap="round" stroke-linejoin="miter"></path></svg>